:FULLY-SPECIFIED
:FORCE-ALL-JOINTS-BE-3DOF
:DEGREES
918
root -0.205654 14.1347 -36.2926 372.937 -27.269 343.985
lfemur -63.6278 30.6539 -0.103627
ltibia 68.3212 0 0
lfoot -6.71269 -8.55152 0
ltoes -13.1836 0 0
rfemur 5.5694 -8.14721 13.3043
rtibia 37.9193 0 0
rfoot -22.5281 -28.8122 0
rtoes -27.3374 0 0
lowerback 11.521 0.151099 6.46529
upperback -1.82424 1.51946 5.04781
thorax -8.43206 0.543268 1.47406
lowerneck -3.68804 7.70654 2.00864
upperneck 3.60828 10.1936 -0.398366
head 1.87668 5.10233 -0.170884
lclavicle -1.50806e-14 3.92529e-14 0
lhumerus 12.2498 5.27274 68.4033
lradius 18.6973 0 0
lwrist -41.4494 0 0
lhand -31.0718 30.5848 0
lfingers 7.12502 0 0
lthumb -4.35252 60.5117 0
rclavicle -1.50806e-14 3.92529e-14 0
rhumerus -76.8266 21.8703 -97.044
rradius 110.57 0 0
rwrist -68.3888 0 0
rhand -11.378 -24.1628 0
rfingers 7.12502 0 0
rthumb 14.6563 -53.6249 0
919
root -0.196398 14.1262 -36.2831 372.905 -27.3173 344.02
lfemur -63.549 30.6154 -0.0822638
ltibia 68.2635 0 0
lfoot -6.64899 -8.4978 0
ltoes -13.1176 0 0
rfemur 5.50319 -8.17321 13.2806
rtibia 38.0382 0 0
rfoot -22.5335 -28.7983 0
rtoes -27.3309 0 0
lowerback 11.5334 0.155781 6.44773
upperback -1.81643 1.52209 5.04558
thorax -8.43108 0.545336 1.4805
lowerneck -3.69891 7.71296 2.0147
upperneck 3.63148 10.2027 -0.412977
head 1.88785 5.10645 -0.174872
lclavicle -1.50504e-14 3.83683e-14 0
lhumerus 12.1585 4.87634 68.434
lradius 18.9355 0 0
lwrist -41.0213 0 0
lhand -31.0632 30.6215 0
lfingers 7.12502 0 0
lthumb -4.34426 60.5467 0
rclavicle -1.50504e-14 3.83683e-14 0
rhumerus -76.8091 21.8396 -97.0134
rradius 110.58 0 0
rwrist -68.3491 0 0
rhand -11.3723 -24.1643 0
rfingers 7.12502 0 0
rthumb 14.6619 -53.6259 0
920
root -0.187141 14.1177 -36.2737 372.87 -27.3691 344.056
lfemur -63.4667 30.5758 -0.0604991
ltibia 68.2055 0 0
lfoot -6.58106 -8.44163 0
ltoes -13.0398 0 0
rfemur 5.43319 -8.20186 13.254
rtibia 38.1663 0 0
rfoot -22.5398 -28.7823 0
rtoes -27.3263 0 0
lowerback 11.5462 0.160412 6.42952
upperback -1.80774 1.52447 5.04457
thorax -8.42944 0.547348 1.48862
lowerneck -3.71071 7.72005 2.02205
upperneck 3.65795 10.2128 -0.429332
head 1.90047 5.111 -0.179438
lclavicle -1.49885e-14 3.73451e-14 0
lhumerus 12.0575 4.41405 68.474
lradius 19.2043 0 0
lwrist -40.5282 0 0
lhand -31.0486 30.6613 0
lfingers 7.12502 0 0
lthumb -4.33002 60.5845 0
rclavicle -1.49885e-14 3.73451e-14 0
rhumerus -76.7902 21.8063 -96.9795
rradius 110.591 0 0
rwrist -68.3055 0 0
rhand -11.366 -24.1662 0
rfingers 7.12502 0 0
rthumb 14.6679 -53.6274 0
921
root -0.177885 14.1092 -36.2642 372.833 -27.4235 344.092
lfemur -63.3834 30.5366 -0.0392988
ltibia 68.1503 0 0
lfoot -6.51039 -8.38478 0
ltoes -12.948 0 0
rfemur 5.36122 -8.233 13.2246
rtibia 38.3015 0 0
rfoot -22.5471 -28.7637 0
rtoes -27.3249 0 0
lowerback 11.5589 0.164715 6.41132
upperback -1.79818 1.52632 5.04549
thorax -8.42687 0.549166 1.49886
lowerneck -3.72328 7.72779 2.03097
upperneck 3.68795 10.2237 -0.447459
head 1.91464 5.11595 -0.184637
lclavicle -1.48817e-14 3.61663e-14 0
lhumerus 11.9472 3.87643 68.526
lradius 19.5051 0 0
lwrist -39.9628 0 0
lhand -31.0252 30.7035 0
lfingers 7.12502 0 0
lthumb -4.30747 60.6247 0
rclavicle -1.48817e-14 3.61663e-14 0
rhumerus -76.7703 21.771 -96.9428
rradius 110.602 0 0
rwrist -68.2585 0 0
rhand -11.3593 -24.1686 0
rfingers 7.12502 0 0
rthumb 14.6743 -53.6293 0
922
root -0.168628 14.1007 -36.2547 372.794 -27.4794 344.129
lfemur -63.3017 30.4995 -0.0196293
ltibia 68.1009 0 0
lfoot -6.43844 -8.32899 0
ltoes -12.8403 0 0
rfemur 5.28909 -8.26647 13.1924
rtibia 38.4416 0 0
rfoot -22.5555 -28.7423 0
rtoes -27.3278 0 0
lowerback 11.571 0.168412 6.39377
upperback -1.78778 1.52739 5.04902
thorax -8.42311 0.55065 1.51166
lowerneck -3.73648 7.73613 2.04172
upperneck 3.72178 10.2354 -0.467388
head 1.93043 5.12129 -0.190524
lclavicle -1.47167e-14 3.48149e-14 0
lhumerus 11.8281 3.25404 68.5927
lradius 19.8393 0 0
lwrist -39.3178 0 0
lhand -30.9909 30.7475 0
lfingers 7.12502 0 0
lthumb -4.27423 60.6667 0
rclavicle -1.47167e-14 3.48149e-14 0
rhumerus -76.7497 21.7341 -96.9032
rradius 110.613 0 0
rwrist -68.2084 0 0
rhand -11.3524 -24.1717 0
rfingers 7.12502 0 0
rthumb 14.681 -53.6319 0
923
root -0.159372 14.0922 -36.2453 372.753 -27.536 344.163
lfemur -63.2242 30.466 -0.00245703
ltibia 68.0601 0 0
lfoot -6.36668 -8.27603 0
ltoes -12.7146 0 0
rfemur 5.2186 -8.3021 13.1573
rtibia 38.5846 0 0
rfoot -22.5652 -28.7179 0
rtoes -27.3363 0 0
lowerback 11.582 0.171227 6.37752
upperback -1.77654 1.52742 5.05588
thorax -8.41789 0.551664 1.52746
lowerneck -3.75015 7.74504 2.05458
upperneck 3.75969 10.2479 -0.489144
head 1.94792 5.12699 -0.197156
lclavicle -1.44803e-14 3.32738e-14 0
lhumerus 11.7004 2.53743 68.6767
lradius 20.2083 0 0
lwrist -38.586 0 0
lhand -30.943 30.7928 0
lfingers 7.12502 0 0
lthumb -4.22797 60.71 0
rclavicle -1.44803e-14 3.32738e-14 0
rhumerus -76.7287 21.6961 -96.861
rradius 110.624 0 0
rwrist -68.1556 0 0
rhand -11.3452 -24.1755 0
rfingers 7.12502 0 0
rthumb 14.6879 -53.6352 0
924
root -0.150115 14.0836 -36.2358 372.712 -27.5922 344.195
lfemur -63.1535 30.4376 0.0112516
ltibia 68.031 0 0
lfoot -6.29658 -8.22765 0
ltoes -12.569 0 0
rfemur 5.15157 -8.33973 13.1192
rtibia 38.7283 0 0
rfoot -22.5762 -28.69 0
rtoes -27.3516 0 0
lowerback 11.5914 0.172883 6.36322
upperback -1.76447 1.52614 5.06674
thorax -8.41098 0.552068 1.54671
lowerneck -3.76414 7.75449 2.06982
upperneck 3.80197 10.2611 -0.512756
head 1.96721 5.13304 -0.204586
lclavicle -1.41592e-14 3.15258e-14 0
lhumerus 11.5646 1.71718 68.7807
lradius 20.6137 0 0
lwrist -37.76 0 0
lhand -30.8793 30.8388 0
lfingers 7.12502 0 0
lthumb -4.16634 60.754 0
rclavicle -1.41592e-14 3.15258e-14 0
rhumerus -76.7077 21.6575 -96.8163
rradius 110.634 0 0
rwrist -68.1004 0 0
rhand -11.3379 -24.1803 0
rfingers 7.12502 0 0
rthumb 14.6949 -53.6394 0
925
root -0.140858 14.0751 -36.2264 372.669 -27.6471 344.224
lfemur -63.0922 30.4158 0.0205301
ltibia 68.0167 0 0
lfoot -6.22961 -8.1856 0
ltoes -12.4014 0 0
rfemur 5.08979 -8.3792 13.0781
rtibia 38.8706 0 0
rfoot -22.5888 -28.6585 0
rtoes -27.3749 0 0
lowerback 11.5987 0.173101 6.35151
upperback -1.75159 1.52329 5.08231
thorax -8.40209 0.551725 1.56983
lowerneck -3.7783 7.76445 2.08773
upperneck 3.8489 10.275 -0.538252
head 1.98836 5.1394 -0.21287
lclavicle -1.37402e-14 2.9554e-14 0
lhumerus 11.4211 0.783827 68.9074
lradius 21.0568 0 0
lwrist -36.8325 0 0
lhand -30.7971 30.885 0
lfingers 7.12502 0 0
lthumb -4.08697 60.7982 0
rclavicle -1.37402e-14 2.9554e-14 0
rhumerus -76.687 21.6188 -96.7694
rradius 110.644 0 0
rwrist -68.0432 0 0
rhand -11.3306 -24.186 0
rfingers 7.12502 0 0
rthumb 14.702 -53.6446 0
